<?xml version="1.0" encoding="utf-8"?>
<!-- Generator: Adobe Illustrator 16.0.0, SVG Export Plug-In . SVG Version: 6.00 Build 0)  -->
<!DOCTYPE svg PUBLIC "-//W3C//DTD SVG 1.1//EN" "http://www.w3.org/Graphics/SVG/1.1/DTD/svg11.dtd">
<svg version="1.1" id="Layer_1" xmlns="http://www.w3.org/2000/svg" xmlns:xlink="http://www.w3.org/1999/xlink" x="0px" y="0px"
	 width="295px" height="68px" viewBox="0 0 294.828 67.242" enable-background="new 0 0 294.828 67.242"
	 xml:space="preserve">
<g>
	<g>
		<path fill="#6D6E73" d="M82.108,42.936c-0.914,0.441-3.082,0.983-5.821,0.983c-7.886,0-11.947-4.941-11.947-11.439
			c0-7.784,5.55-12.082,12.455-12.082c2.673,0,4.704,0.508,5.617,1.017l-1.083,4.061c-1.015-0.441-2.471-0.847-4.331-0.847
			c-4.062,0-7.241,2.471-7.241,7.547c0,4.569,2.707,7.445,7.274,7.445c1.592,0,3.283-0.305,4.333-0.745L82.108,42.936z"/>
		<path fill="#6D6E73" d="M84.883,19.518h5.142v24.028h-5.142V19.518z"/>
		<path fill="#6D6E73" d="M110.161,35.085c0,6.059-4.298,8.834-8.73,8.834c-4.842,0-8.564-3.182-8.564-8.529
			c0-5.38,3.521-8.8,8.868-8.8C106.776,26.59,110.161,30.077,110.161,35.085z M98.183,35.255c0,2.843,1.183,4.975,3.382,4.975
			c2.032,0,3.283-1.996,3.283-5.009c0-2.437-0.947-4.941-3.283-4.941C99.128,30.279,98.183,32.817,98.183,35.255z"/>
		<path fill="#6D6E73" d="M128.571,38.233c0,2.166,0.068,3.925,0.135,5.312h-4.467l-0.236-2.335H123.9
			c-0.642,1.016-2.201,2.708-5.178,2.708c-3.384,0-5.821-2.1-5.821-7.209v-9.714h5.143v8.901c0,2.403,0.779,3.857,2.607,3.857
			c1.422,0,2.268-0.98,2.574-1.793c0.132-0.304,0.199-0.677,0.199-1.117v-9.849h5.146V38.233z"/>
		<path fill="#6D6E73" d="M148.367,19.518v19.087c0,1.861,0.067,3.825,0.136,4.941h-4.57l-0.201-2.402h-0.103
			c-1.016,1.826-3.046,2.775-5.179,2.775c-3.926,0-7.072-3.352-7.072-8.495c-0.035-5.583,3.452-8.834,7.413-8.834
			c2.062,0,3.62,0.745,4.365,1.861h0.066v-8.934H148.367z M143.223,34.003c0-0.271,0-0.644-0.066-0.948
			c-0.306-1.354-1.423-2.505-3.015-2.505c-2.369,0-3.553,2.1-3.553,4.705c0,2.809,1.388,4.567,3.52,4.567
			c1.489,0,2.707-1.014,3.014-2.47c0.066-0.371,0.101-0.777,0.101-1.184V34.003z"/>
		<path fill="#6D6E73" d="M152.459,38.233c1.354,0.711,3.521,1.422,5.721,1.422c2.368,0,3.62-0.982,3.62-2.473
			c0-1.421-1.082-2.232-3.824-3.18c-3.789-1.354-6.292-3.453-6.292-6.77c0-3.892,3.281-6.836,8.626-6.836
			c2.609,0,4.472,0.508,5.823,1.149l-1.151,4.131c-0.879-0.441-2.537-1.084-4.736-1.084c-2.236,0-3.318,1.049-3.318,2.2
			c0,1.456,1.253,2.099,4.232,3.216c4.026,1.489,5.889,3.587,5.889,6.803c0,3.823-2.914,7.071-9.172,7.071
			c-2.607,0-5.181-0.711-6.465-1.42L152.459,38.233z"/>
		<path fill="#6D6E73" d="M186.606,35.085c0,6.059-4.299,8.834-8.732,8.834c-4.839,0-8.564-3.182-8.564-8.529
			c0-5.38,3.521-8.8,8.867-8.8C183.222,26.59,186.606,30.077,186.606,35.085z M174.624,35.255c0,2.843,1.186,4.975,3.387,4.975
			c2.029,0,3.281-1.996,3.281-5.009c0-2.437-0.946-4.941-3.281-4.941C175.572,30.279,174.624,32.817,174.624,35.255z"/>
		<path fill="#6D6E73" d="M205.015,38.233c0,2.166,0.064,3.925,0.135,5.312h-4.469l-0.235-2.335h-0.1
			c-0.646,1.016-2.2,2.708-5.181,2.708c-3.385,0-5.82-2.1-5.82-7.209v-9.714h5.143v8.901c0,2.403,0.779,3.857,2.605,3.857
			c1.422,0,2.27-0.98,2.576-1.793c0.133-0.304,0.2-0.677,0.2-1.117v-9.849h5.146V38.233z"/>
		<path fill="#6D6E73" d="M208.769,32.444c0-2.435-0.034-4.026-0.134-5.448h4.397l0.205,3.047h0.133
			c0.847-2.437,2.845-3.453,4.469-3.453c0.474,0,0.713,0.035,1.084,0.103v4.839c-0.408-0.067-0.812-0.136-1.388-0.136
			c-1.896,0-3.181,1.017-3.521,2.607c-0.067,0.339-0.101,0.744-0.101,1.151v8.392h-5.145V32.444z"/>
		<path fill="#6D6E73" d="M233.404,43.106c-0.913,0.439-2.64,0.777-4.603,0.777c-5.347,0-8.767-3.281-8.767-8.46
			c0-4.84,3.318-8.799,9.476-8.799c1.357,0,2.846,0.235,3.929,0.642l-0.815,3.825c-0.606-0.271-1.52-0.508-2.874-0.508
			c-2.707,0-4.469,1.929-4.434,4.637c0,3.013,2.031,4.636,4.536,4.636c1.216,0,2.165-0.201,2.941-0.541L233.404,43.106z"/>
		<path fill="#6D6E73" d="M239.46,36.913c0.137,2.131,2.269,3.148,4.67,3.148c1.76,0,3.182-0.239,4.572-0.713l0.674,3.488
			c-1.691,0.709-3.756,1.047-5.99,1.047c-5.615,0-8.831-3.248-8.831-8.426c0-4.196,2.606-8.833,8.359-8.833
			c5.345,0,7.378,4.163,7.378,8.258c0,0.879-0.102,1.658-0.169,2.03H239.46z M245.52,33.393c0-1.251-0.544-3.35-2.911-3.35
			c-2.167,0-3.047,1.997-3.182,3.35H245.52z"/>
		<path fill="#0071C4" d="M258.344,20.736v22.81H253.2v-22.81H258.344z"/>
		<path fill="#0071C4" d="M266.872,25.067h-6.158v-4.331h17.529v4.331h-6.227v18.479h-5.145V25.067z"/>
		<path fill="#0071C4" d="M277.26,40.805c0-1.86,1.249-3.146,3.046-3.146c1.761,0,2.98,1.252,3.014,3.146
			c0,1.795-1.222,3.114-3.079,3.114C278.509,43.919,277.26,42.6,277.26,40.805z"/>
	</g>
	<g>
		<path fill="#0071C4" d="M49.88,9.143H22.309c-5.938,0-10.8,4.861-10.8,10.802v27.428c0,5.939,4.861,10.799,10.8,10.799H49.88
			c5.939,0,10.799-4.859,10.799-10.799V19.944C60.679,14.004,55.819,9.143,49.88,9.143z"/>
		<path fill="#FFFFFF" d="M51.586,25.18l-0.126-0.042c-0.161-0.05-1.646-0.496-3.64-0.496c-1.07,0-2.095,0.123-3.065,0.368
			c-1.744-2.217-4.623-4.049-8.701-4.082c-4.042,0.033-6.912,1.865-8.656,4.082c-0.968-0.246-1.992-0.368-3.062-0.368
			c-1.995,0-3.478,0.446-3.642,0.496L20.57,25.18c-6.186,2.255-7.324,7.909-7.064,10.692c0.339,7.953,6.692,10.381,10.017,10.55
			l0.076,0.005H48.56l0.073-0.005c3.326-0.169,9.681-2.597,10.015-10.55C58.911,33.089,57.771,27.435,51.586,25.18z M55.774,35.671
			c-0.27,7.516-7.291,7.875-7.291,7.875H23.671c0,0-7.019-0.359-7.29-7.875c0,0-0.63-5.67,5.177-7.785c0,0,3.733-1.169,7.062,0.676
			c0.785-1.911,3.062-4.72,7.457-4.755h0.003c4.396,0.035,6.674,2.844,7.453,4.755c3.331-1.845,7.065-0.676,7.065-0.676
			C56.403,30.001,55.774,35.671,55.774,35.671z"/>
	</g>
	
		<linearGradient id="SVGID_1_" gradientUnits="userSpaceOnUse" x1="7228.2188" y1="61.4404" x2="7228.2188" y2="-1.7567" gradientTransform="matrix(-1 0 0 1 7264.3281 0)">
		<stop  offset="0.0886" style="stop-color:#0099E5"/>
		<stop  offset="0.1738" style="stop-color:#008AD8"/>
		<stop  offset="0.2768" style="stop-color:#0073C3"/>
		<stop  offset="0.541" style="stop-color:#0073C3"/>
		<stop  offset="0.7104" style="stop-color:#0071C4"/>
		<stop  offset="0.8421" style="stop-color:#0099DE"/>
		<stop  offset="1" style="stop-color:#0099DE"/>
	</linearGradient>
	<path fill="url(#SVGID_1_)" d="M11.524,19.871v27.427c0,5.941,4.858,10.8,10.799,10.8h27.569c5.94,0,10.8-4.858,10.8-10.8V19.871
		c0-5.938-4.859-10.8-10.8-10.8H22.323C16.383,9.071,11.524,13.933,11.524,19.871z"/>
	
		<linearGradient id="SVGID_2_" gradientUnits="userSpaceOnUse" x1="7228.2188" y1="62.6592" x2="7228.2188" y2="2.8408" gradientTransform="matrix(-1 0 0 1 7264.3281 0)">
		<stop  offset="0.0626" style="stop-color:#0099E5"/>
		<stop  offset="0.1476" style="stop-color:#008AD8"/>
		<stop  offset="0.2504" style="stop-color:#0073C3"/>
		<stop  offset="0.3561" style="stop-color:#0079C8"/>
		<stop  offset="0.5513" style="stop-color:#007FCD"/>
		<stop  offset="0.7104" style="stop-color:#0071C4"/>
		<stop  offset="0.8421" style="stop-color:#0099DE"/>
		<stop  offset="1" style="stop-color:#0099DE"/>
	</linearGradient>
	<path fill="url(#SVGID_2_)" d="M12.839,20.604v25.961c0,5.623,4.6,10.223,10.222,10.223h26.095c5.623,0,10.223-4.6,10.223-10.223
		V20.604c0-5.621-4.6-10.222-10.223-10.222H23.061C17.438,10.382,12.839,14.982,12.839,20.604z"/>
	<path fill="#FFFFFF" d="M13.554,35.8c0.338,7.953,6.691,10.38,10.017,10.551l0.073,0.004h24.961l0.072-0.004
		c3.328-0.171,9.682-2.598,10.018-10.551c0.262-2.783-0.877-8.438-7.063-10.692l-0.125-0.042c-0.162-0.051-1.646-0.496-3.64-0.496
		c-1.069,0-2.093,0.122-3.062,0.367c-1.745-2.216-4.614-4.049-8.655-4.082c-4.079,0.033-6.957,1.866-8.703,4.082
		c-0.969-0.245-1.993-0.367-3.064-0.367c-1.994,0-3.478,0.445-3.641,0.496l-0.124,0.042C14.431,27.361,13.292,33.017,13.554,35.8z
		 M21.604,27.813c0,0,3.734-1.169,7.065,0.675c0.781-1.911,3.057-4.718,7.455-4.754h0.002c4.396,0.036,6.674,2.843,7.455,4.754
		c3.33-1.844,7.064-0.675,7.064-0.675c5.805,2.115,5.176,7.785,5.176,7.785c-0.271,7.516-7.291,7.876-7.291,7.876H23.718
		c0,0-7.021-0.36-7.289-7.876C16.429,35.599,15.798,29.929,21.604,27.813z"/>
</g>
<path fill="#0F6DB8" d="M11.524,30.418c5.295,1.815,13.271,3.491,24.593,3.401c11.306,0.09,19.276-1.582,24.575-3.396v16.875
	c0,5.941-4.859,10.8-10.8,10.8H22.323c-5.94,0-10.799-4.858-10.799-10.8V30.418z"/>
<path fill="#AFCFDE" d="M16.429,35.599c0.269,7.516,7.289,7.876,7.289,7.876H48.53c0,0,7.02-0.36,7.291-7.876
	c0,0,0.189-1.729-0.615-3.633c0.994-0.227,1.927-0.465,2.807-0.713c0.648,1.713,0.791,3.383,0.682,4.547
	c-0.336,7.953-6.689,10.38-10.018,10.551l-0.072,0.004H23.644l-0.073-0.004c-3.325-0.171-9.679-2.598-10.017-10.551
	c-0.109-1.164,0.033-2.832,0.681-4.542c0.88,0.247,1.812,0.486,2.806,0.713C16.238,33.872,16.429,35.599,16.429,35.599z"/>
</svg>
