<?xml version="1.0" encoding="utf-8"?>
<!-- Generator: Adobe Illustrator 16.0.0, SVG Export Plug-In . SVG Version: 6.00 Build 0)  -->
<!DOCTYPE svg PUBLIC "-//W3C//DTD SVG 1.1//EN" "http://www.w3.org/Graphics/SVG/1.1/DTD/svg11.dtd">
<svg version="1.1" id="Layer_1" xmlns="http://www.w3.org/2000/svg" xmlns:xlink="http://www.w3.org/1999/xlink" x="0px" y="0px"
	 width="1024px" height="130px" viewBox="0 0 1024 130" enable-background="new 0 0 1024 130" xml:space="preserve">
<path fill="#FFFFFF" d="M1024,115.674V0H0v115.674c21.626-2.148,34.876-15.844,34.876-15.844
	c20.455,16.411,52.035,15.844,52.035,15.844c42.218,1.479,59.978-20.709,59.978-20.709c19.247,10.157,41.291,4.594,41.291,4.594
	c9.851-2.935,16.623-7.488,21.283-12.483c8.72,9.439,23.041,18.123,44.565,18.833h0.018c25.638,0.467,41.683-10.87,50.163-21.723
	c2.644,1.493,5.609,2.867,8.975,4.06c0,0,21.709,6.683,41.467-2.478c4.318,10.124,17.266,25.164,43.005,26.012l0.018,0.001
	c25.378,0.464,39.065-13.47,44.091-23.339c0.132-0.055,0.264-0.104,0.396-0.159c4.018,10.248,16.512,25.669,42.216,27.283
	l0.018,0.001c25.729,1.242,39.869-12.7,45-22.437c18.936,10.728,41.135,5.824,41.135,5.824c9.934-2.637,16.838-6.987,21.646-11.841
	c8.434,9.696,22.49,18.804,43.984,20.156l0.018,0.001c25.613,1.233,41.988-9.62,50.787-20.214c2.598,1.571,5.521,3.033,8.85,4.326
	c0,0,21.5,7.328,41.521-1.238c0,27.437,43.793,25.5,43.793,25.5c31.334,0,38.504-13.585,38.504-13.585
	c6.938,6.721,17.543,12.547,32.805,13.506l0.018,0.001c25.729,1.242,39.871-12.7,45-22.437c18.936,10.728,41.135,5.824,41.135,5.824
	c9.934-2.637,16.84-6.987,21.646-11.841C960.234,87.113,976.793,118.026,1024,115.674z"/>
</svg>
